<svg width="2616" height="842" viewBox="0 0 2616 842" fill="none" xmlns="http://www.w3.org/2000/svg">
<path d="M35.3693 797.273V524.545H98.4375V545.426H59.233V776.392H98.4375V797.273H35.3693ZM126.163 725.256V703.523L222.044 551.818H237.811V585.483H227.157L154.714 700.114V701.818H283.833V725.256H126.163ZM228.862 770V718.651V708.53V551.818H254.004V770H228.862ZM351.429 740.17L349.725 751.676C348.517 759.773 346.671 768.438 344.185 777.67C341.77 786.903 339.249 795.604 336.621 803.771C333.993 811.939 331.827 818.438 330.123 823.267H310.946C311.87 818.722 313.077 812.72 314.569 805.263C316.06 797.805 317.551 789.46 319.043 780.227C320.605 771.065 321.884 761.69 322.878 752.102L324.157 740.17H351.429ZM550.142 772.983C537.642 772.983 526.385 770.497 516.371 765.526C506.357 760.554 498.331 753.736 492.294 745.071C486.257 736.406 482.955 726.534 482.386 715.455H507.955C508.949 725.327 513.423 733.494 521.378 739.957C529.403 746.349 538.991 749.545 550.142 749.545C559.091 749.545 567.045 747.45 574.006 743.26C581.037 739.07 586.541 733.317 590.518 726.001C594.567 718.615 596.591 710.27 596.591 700.966C596.591 691.449 594.496 682.962 590.305 675.504C586.186 667.976 580.504 662.045 573.26 657.713C566.016 653.381 557.741 651.179 548.438 651.108C541.761 651.037 534.908 652.067 527.876 654.197C520.845 656.257 515.057 658.92 510.511 662.188L485.795 659.205L499.006 551.818H612.358V575.256H521.165L513.494 639.602H514.773C519.247 636.051 524.858 633.104 531.605 630.76C538.352 628.416 545.384 627.244 552.699 627.244C566.051 627.244 577.947 630.44 588.388 636.832C598.899 643.153 607.138 651.818 613.104 662.827C619.141 673.835 622.159 686.406 622.159 700.54C622.159 714.46 619.034 726.889 612.784 737.827C606.605 748.693 598.082 757.287 587.216 763.608C576.349 769.858 563.991 772.983 550.142 772.983ZM694.203 740.17L692.498 751.676C691.291 759.773 689.444 768.438 686.958 777.67C684.544 786.903 682.022 795.604 679.395 803.771C676.767 811.939 674.6 818.438 672.896 823.267H653.72C654.643 818.722 655.85 812.72 657.342 805.263C658.833 797.805 660.325 789.46 661.816 780.227C663.379 771.065 664.657 761.69 665.652 752.102L666.93 740.17H694.203ZM897.177 772.983C888.228 772.841 879.279 771.136 870.33 767.869C861.381 764.602 853.214 759.098 845.827 751.357C838.441 743.544 832.511 732.997 828.036 719.716C823.562 706.364 821.325 689.602 821.325 669.432C821.325 650.114 823.136 632.997 826.758 618.082C830.38 603.097 835.636 590.49 842.525 580.263C849.414 569.964 857.724 562.152 867.454 556.825C877.255 551.499 888.299 548.835 900.586 548.835C912.802 548.835 923.668 551.286 933.185 556.186C942.773 561.016 950.586 567.763 956.623 576.428C962.66 585.092 966.566 595.071 968.342 606.364H942.347C939.933 596.562 935.245 588.43 928.285 581.967C921.325 575.504 912.092 572.273 900.586 572.273C883.683 572.273 870.366 579.624 860.636 594.325C850.977 609.027 846.112 629.659 846.04 656.222H847.745C851.722 650.185 856.445 645.036 861.914 640.774C867.454 636.442 873.562 633.104 880.238 630.76C886.914 628.416 893.981 627.244 901.438 627.244C913.938 627.244 925.373 630.369 935.742 636.619C946.112 642.798 954.421 651.357 960.671 662.294C966.921 673.161 970.046 685.625 970.046 699.688C970.046 713.182 967.028 725.54 960.991 736.761C954.954 747.912 946.467 756.79 935.529 763.395C924.663 769.929 911.879 773.125 897.177 772.983ZM897.177 749.545C906.126 749.545 914.151 747.308 921.254 742.834C928.427 738.359 934.073 732.358 938.192 724.83C942.383 717.301 944.478 708.92 944.478 699.688C944.478 690.668 942.454 682.464 938.406 675.078C934.428 667.621 928.924 661.69 921.893 657.287C914.933 652.884 906.978 650.682 898.029 650.682C891.282 650.682 884.996 652.031 879.173 654.73C873.349 657.358 868.235 660.98 863.832 665.597C859.499 670.213 856.09 675.504 853.604 681.47C851.119 687.365 849.876 693.58 849.876 700.114C849.876 708.778 851.9 716.875 855.948 724.403C860.067 731.932 865.678 738.004 872.781 742.621C879.954 747.237 888.086 749.545 897.177 749.545ZM1039.61 740.17L1037.91 751.676C1036.7 759.773 1034.85 768.438 1032.37 777.67C1029.95 786.903 1027.43 795.604 1024.8 803.771C1022.18 811.939 1020.01 818.438 1018.31 823.267H999.13C1000.05 818.722 1001.26 812.72 1002.75 805.263C1004.24 797.805 1005.74 789.46 1007.23 780.227C1008.79 771.065 1010.07 761.69 1011.06 752.102L1012.34 740.17H1039.61ZM1176.96 770L1274.55 576.96V575.256H1162.05V551.818H1301.82V576.534L1204.66 770H1176.96ZM1341.96 740.17L1340.25 751.676C1339.04 759.773 1337.2 768.438 1334.71 777.67C1332.3 786.903 1329.78 795.604 1327.15 803.771C1324.52 811.939 1322.35 818.438 1320.65 823.267H1301.47C1302.4 818.722 1303.6 812.72 1305.1 805.263C1306.59 797.805 1308.08 789.46 1309.57 780.227C1311.13 771.065 1312.41 761.69 1313.41 752.102L1314.68 740.17H1341.96ZM1546.21 772.983C1532.15 772.983 1519.61 770.568 1508.6 765.739C1497.67 760.909 1488.96 754.197 1482.5 745.604C1476.11 736.939 1472.63 726.889 1472.06 715.455H1498.91C1499.48 722.486 1501.89 728.558 1506.15 733.672C1510.41 738.714 1515.99 742.621 1522.88 745.391C1529.77 748.161 1537.4 749.545 1545.78 749.545C1555.16 749.545 1563.47 747.912 1570.71 744.645C1577.96 741.378 1583.64 736.832 1587.76 731.009C1591.88 725.185 1593.94 718.438 1593.94 710.767C1593.94 702.741 1591.95 695.675 1587.97 689.567C1583.99 683.388 1578.17 678.558 1570.5 675.078C1562.83 671.598 1553.45 669.858 1542.37 669.858H1524.9V646.42H1542.37C1551.04 646.42 1558.64 644.858 1565.17 641.733C1571.78 638.608 1576.93 634.205 1580.62 628.523C1584.38 622.841 1586.27 616.165 1586.27 608.494C1586.27 601.108 1584.63 594.68 1581.37 589.212C1578.1 583.743 1573.48 579.482 1567.52 576.428C1561.62 573.374 1554.66 571.847 1546.64 571.847C1539.11 571.847 1532 573.232 1525.33 576.001C1518.72 578.7 1513.33 582.642 1509.14 587.827C1504.94 592.94 1502.67 599.119 1502.32 606.364H1476.75C1477.18 594.929 1480.62 584.915 1487.08 576.321C1493.55 567.656 1502 560.909 1512.44 556.08C1522.95 551.25 1534.49 548.835 1547.06 548.835C1560.56 548.835 1572.13 551.57 1581.79 557.038C1591.45 562.436 1598.87 569.574 1604.06 578.452C1609.24 587.33 1611.83 596.918 1611.83 607.216C1611.83 619.503 1608.6 629.979 1602.14 638.643C1595.75 647.308 1587.05 653.31 1576.04 656.648V658.352C1589.82 660.625 1600.58 666.484 1608.32 675.93C1616.06 685.305 1619.93 696.918 1619.93 710.767C1619.93 722.628 1616.7 733.281 1610.24 742.727C1603.84 752.102 1595.11 759.489 1584.03 764.886C1572.95 770.284 1560.34 772.983 1546.21 772.983ZM1694.69 740.17L1692.99 751.676C1691.78 759.773 1689.93 768.438 1687.45 777.67C1685.03 786.903 1682.51 795.604 1679.88 803.771C1677.25 811.939 1675.09 818.438 1673.38 823.267H1654.21C1655.13 818.722 1656.34 812.72 1657.83 805.263C1659.32 797.805 1660.81 789.46 1662.3 780.227C1663.87 771.065 1665.15 761.69 1666.14 752.102L1667.42 740.17H1694.69ZM1832.04 770L1929.63 576.96V575.256H1817.13V551.818H1956.9V576.534L1859.74 770H1832.04ZM1997.03 740.17L1995.33 751.676C1994.12 759.773 1992.28 768.438 1989.79 777.67C1987.38 786.903 1984.85 795.604 1982.23 803.771C1979.6 811.939 1977.43 818.438 1975.73 823.267H1956.55C1957.48 818.722 1958.68 812.72 1960.17 805.263C1961.67 797.805 1963.16 789.46 1964.65 780.227C1966.21 771.065 1967.49 761.69 1968.48 752.102L1969.76 740.17H1997.03ZM2197.03 548.835C2205.97 548.906 2214.92 550.611 2223.87 553.949C2232.82 557.287 2240.99 562.827 2248.38 570.568C2255.76 578.239 2261.69 588.714 2266.17 601.996C2270.64 615.277 2272.88 631.932 2272.88 651.96C2272.88 671.349 2271.03 688.572 2267.34 703.629C2263.72 718.615 2258.46 731.257 2251.57 741.555C2244.75 751.854 2236.44 759.666 2226.64 764.993C2216.91 770.32 2205.9 772.983 2193.62 772.983C2181.4 772.983 2170.5 770.568 2160.91 765.739C2151.39 760.838 2143.58 754.055 2137.47 745.391C2131.44 736.655 2127.57 726.534 2125.86 715.028H2151.86C2154.2 725.043 2158.85 733.317 2165.81 739.851C2172.84 746.314 2182.11 749.545 2193.62 749.545C2210.45 749.545 2223.73 742.195 2233.46 727.493C2243.26 712.791 2248.16 692.017 2248.16 665.17H2246.46C2242.48 671.136 2237.76 676.286 2232.29 680.618C2226.82 684.95 2220.75 688.288 2214.07 690.632C2207.4 692.976 2200.29 694.148 2192.76 694.148C2180.26 694.148 2168.79 691.058 2158.35 684.879C2147.98 678.629 2139.68 670.071 2133.43 659.205C2127.25 648.267 2124.16 635.767 2124.16 621.705C2124.16 608.352 2127.14 596.136 2133.11 585.057C2139.14 573.906 2147.59 565.028 2158.46 558.423C2169.4 551.818 2182.25 548.622 2197.03 548.835ZM2197.03 572.273C2188.08 572.273 2180.02 574.51 2172.84 578.984C2165.74 583.388 2160.09 589.354 2155.9 596.882C2151.78 604.339 2149.72 612.614 2149.72 621.705C2149.72 630.795 2151.71 639.07 2155.69 646.527C2159.74 653.913 2165.24 659.808 2172.2 664.212C2179.23 668.544 2187.22 670.71 2196.17 670.71C2202.92 670.71 2209.21 669.396 2215.03 666.768C2220.85 664.07 2225.93 660.412 2230.26 655.795C2234.67 651.108 2238.11 645.817 2240.6 639.922C2243.08 633.956 2244.33 627.741 2244.33 621.278C2244.33 612.756 2242.27 604.766 2238.15 597.308C2234.1 589.851 2228.49 583.814 2221.32 579.197C2214.21 574.581 2206.12 572.273 2197.03 572.273ZM2365.48 524.545V797.273H2302.41V776.392H2341.62V545.426H2302.41V524.545H2365.48Z" fill="#006CA9"/>
<path d="M305.256 416.295V399.25L442.472 329.364V356.636L337.216 407.347L338.068 405.642V409.903L337.216 408.199L442.472 458.909V486.182L305.256 416.295Z" fill="#737370"/>
<path d="M1441.47 416.295L1304.26 486.182V458.909L1409.51 408.199L1408.66 409.903V405.642L1409.51 407.347L1304.26 356.636V329.364L1441.47 399.25V416.295Z" fill="#737370"/>
<path d="M1633.29 277.364L1616.89 261.17L1696.15 181.909L1616.89 102.861L1633.29 86.4545L1728.75 181.909L1633.29 277.364ZM1509.5 218.983V195.545H1699.34L1675.91 218.983H1509.5ZM1509.5 168.273V144.835H1675.91L1699.34 168.273H1509.5ZM1869.03 291V72.8182H1999.85V96.2557H1895.45V169.977H1990.05V193.415H1895.45V291H1869.03ZM2089.84 294.835C2079.48 294.835 2070.06 292.882 2061.61 288.976C2053.16 284.999 2046.45 279.281 2041.48 271.824C2036.51 264.295 2034.02 255.205 2034.02 244.551C2034.02 235.176 2035.87 227.577 2039.56 221.753C2043.25 215.858 2048.19 211.241 2054.37 207.903C2060.55 204.565 2067.37 202.08 2074.82 200.446C2082.35 198.741 2089.92 197.392 2097.51 196.398C2107.46 195.119 2115.52 194.161 2121.7 193.521C2127.95 192.811 2132.49 191.639 2135.33 190.006C2138.25 188.372 2139.7 185.531 2139.7 181.483V180.631C2139.7 170.119 2136.83 161.952 2131.07 156.128C2125.39 150.304 2116.76 147.392 2105.19 147.392C2093.18 147.392 2083.77 150.02 2076.95 155.276C2070.14 160.531 2065.34 166.142 2062.57 172.108L2038.71 163.585C2042.97 153.642 2048.65 145.901 2055.75 140.361C2062.93 134.75 2070.74 130.844 2079.19 128.642C2087.71 126.369 2096.09 125.233 2104.33 125.233C2109.59 125.233 2115.63 125.872 2122.44 127.151C2129.33 128.358 2135.97 130.879 2142.37 134.714C2148.83 138.55 2154.19 144.338 2158.45 152.08C2162.71 159.821 2164.84 170.19 2164.84 183.188V291H2139.7V268.841H2138.42C2136.72 272.392 2133.88 276.192 2129.9 280.24C2125.92 284.288 2120.63 287.733 2114.03 290.574C2107.42 293.415 2099.36 294.835 2089.84 294.835ZM2093.68 272.25C2103.62 272.25 2112 270.297 2118.82 266.391C2125.71 262.484 2130.9 257.442 2134.38 251.263C2137.93 245.084 2139.7 238.585 2139.7 231.767V208.756C2138.64 210.034 2136.29 211.206 2132.67 212.271C2129.12 213.266 2125 214.153 2120.31 214.935C2115.7 215.645 2111.19 216.284 2106.78 216.852C2102.45 217.349 2098.94 217.776 2096.24 218.131C2089.7 218.983 2083.59 220.368 2077.91 222.286C2072.3 224.132 2067.76 226.937 2064.28 230.702C2060.87 234.395 2059.16 239.437 2059.16 245.83C2059.16 254.565 2062.39 261.17 2068.86 265.645C2075.39 270.048 2083.67 272.25 2093.68 272.25ZM2235.88 72.8182V291H2210.73V72.8182H2235.88ZM2397.83 164.011L2375.25 170.403C2373.83 166.639 2371.73 162.982 2368.96 159.43C2366.26 155.808 2362.57 152.825 2357.88 150.482C2353.2 148.138 2347.2 146.966 2339.88 146.966C2329.87 146.966 2321.52 149.274 2314.84 153.891C2308.24 158.436 2304.94 164.224 2304.94 171.256C2304.94 177.506 2307.21 182.442 2311.75 186.064C2316.3 189.686 2323.4 192.705 2333.06 195.119L2357.35 201.085C2371.98 204.636 2382.88 210.07 2390.06 217.385C2397.23 224.629 2400.82 233.969 2400.82 245.403C2400.82 254.778 2398.12 263.159 2392.72 270.545C2387.39 277.932 2379.94 283.756 2370.35 288.017C2360.76 292.278 2349.61 294.409 2336.9 294.409C2320.21 294.409 2306.39 290.787 2295.46 283.543C2284.52 276.298 2277.59 265.716 2274.68 251.795L2298.54 245.83C2300.82 254.636 2305.11 261.241 2311.44 265.645C2317.83 270.048 2326.17 272.25 2336.47 272.25C2348.19 272.25 2357.49 269.764 2364.38 264.793C2371.34 259.75 2374.82 253.713 2374.82 246.682C2374.82 241 2372.83 236.241 2368.86 232.406C2364.88 228.5 2358.77 225.588 2350.53 223.67L2323.26 217.278C2308.27 213.727 2297.27 208.223 2290.24 200.766C2283.27 193.237 2279.79 183.827 2279.79 172.534C2279.79 163.301 2282.39 155.134 2287.57 148.031C2292.83 140.929 2299.97 135.354 2308.99 131.305C2318.08 127.257 2328.37 125.233 2339.88 125.233C2356.07 125.233 2368.79 128.784 2378.02 135.886C2387.32 142.989 2393.93 152.364 2397.83 164.011ZM2507.27 294.409C2491.5 294.409 2477.9 290.929 2466.47 283.969C2455.11 276.938 2446.33 267.136 2440.16 254.565C2434.05 241.923 2430.99 227.222 2430.99 210.46C2430.99 193.699 2434.05 178.926 2440.16 166.142C2446.33 153.287 2454.93 143.273 2465.94 136.099C2477.02 128.855 2489.94 125.233 2504.71 125.233C2513.24 125.233 2521.65 126.653 2529.96 129.494C2538.27 132.335 2545.84 136.952 2552.66 143.344C2559.47 149.665 2564.91 158.045 2568.95 168.486C2573 178.926 2575.03 191.781 2575.03 207.051V217.705H2448.89V195.972H2549.46C2549.46 186.739 2547.61 178.5 2543.92 171.256C2540.3 164.011 2535.11 158.294 2528.37 154.104C2521.69 149.913 2513.81 147.818 2504.71 147.818C2494.7 147.818 2486.04 150.304 2478.72 155.276C2471.48 160.176 2465.9 166.568 2461.99 174.452C2458.09 182.335 2456.14 190.787 2456.14 199.807V214.295C2456.14 226.653 2458.27 237.129 2462.53 245.723C2466.86 254.246 2472.86 260.744 2480.53 265.219C2488.2 269.622 2497.12 271.824 2507.27 271.824C2513.88 271.824 2519.84 270.901 2525.17 269.054C2530.57 267.136 2535.22 264.295 2539.13 260.531C2543.03 256.696 2546.05 251.937 2548.18 246.256L2572.47 253.074C2569.91 261.312 2565.62 268.557 2559.58 274.807C2553.54 280.986 2546.09 285.815 2537.21 289.295C2528.33 292.705 2518.35 294.409 2507.27 294.409Z" fill="#FA8F00"/>
<path d="M971.256 416.295V399.25L1108.47 329.364V356.636L1003.22 407.347L1004.07 405.642V409.903L1003.22 408.199L1108.47 458.909V486.182L971.256 416.295Z" fill="#737370"/>
<path d="M638.256 416.295V399.25L775.472 329.364V356.636L670.216 407.347L671.068 405.642V409.903L670.216 408.199L775.472 458.909V486.182L638.256 416.295Z" fill="#737370"/>
<path d="M466.654 127L486 142.129L402.121 277H382.776L336 203.931L355.346 183.813L392.449 222.44L466.654 127Z" fill="#737370"/>
<path d="M1119.65 127L1139 142.129L1055.12 277H1035.78L989 203.931L1008.35 183.813L1045.45 222.44L1119.65 127Z" fill="#737370"/>
<path d="M784.654 127L804 142.129L720.121 277H700.776L654 203.931L673.346 183.813L710.449 222.44L784.654 127Z" fill="#737370"/>
<path d="M1410.09 202L1456.87 248.776L1428.78 276.867L1382 230.092L1335.09 277L1307 248.908L1353.91 202L1307 155.092L1335.09 127L1382 173.908L1428.91 127.133L1457 155.224L1410.09 202Z" fill="#737370"/>
</svg>
